<svg xmlns="http://www.w3.org/2000/svg" width="261.583" height="169.569" viewBox="0 0 261.583 169.569">
  <g id="Group_361" data-name="Group 361" transform="translate(-3983.589 -1256.738)">
    <path id="Path_132" data-name="Path 132" d="M4374.116,1347.208a31.107,31.107,0,0,0-1.125-5.872,26.858,26.858,0,0,0-.966-2.671,10.479,10.479,0,0,1-1.173-3.019,5.758,5.758,0,0,1,.8-2.482,7.783,7.783,0,0,0,.568-2.464,9.328,9.328,0,0,0-1.065-4.732c-1.409-2.8-4.691-6.009-8.125-5.161-3.567.88-3.94,5.839-4.446,8.779-.7,4.043-.79,8.033.858,11.862,1.323,3.085,3.861,7.014.909,9.985a4.915,4.915,0,0,1-2.362,1.341,2.267,2.267,0,0,1-.573.091c-.415,0-.378-.044-.459-.373a7.689,7.689,0,0,1,.027-1.666,42.753,42.753,0,0,0-.547-7.018c-.321-1.933-1.009-3.99-2.691-5.157a4.627,4.627,0,0,0-3.517-.775,35.487,35.487,0,0,0-2.194-8.406c-.957-2.374-2.417-4.865-5.186-5.28a6.754,6.754,0,0,0-5.5,1.921c-2.273.371-3.96,2.438-5.052,4.506a26.459,26.459,0,0,0-2.878,9.573.836.836,0,0,0,.747.976c.05.072.108.147.171.23a36.091,36.091,0,0,1,4.151,6.775,17.5,17.5,0,0,0,1.308,3.272,37.045,37.045,0,0,1,2.263,5.48c2.068,6.489,3.521,13.785,1.778,20.516a18.175,18.175,0,0,1-1.847,4.571c-.765,1.324-2.256,2.623-2.035,4.274.4,2.941,4.329,4.2,6.851,3.964a7.434,7.434,0,0,0,6.485-5.153c1.02-3.075.268-6.512-.591-9.529-1.289-4.532-2.7-9.032-4.044-13.545-.585-1.956-1.442-4.1-.5-6.083a5.389,5.389,0,0,1,2.9-2.669,12.631,12.631,0,0,0,4.422,10.134c-.213,2.926.035,6.349,2.455,8.338a5.877,5.877,0,0,0,4.72,1.266,8.365,8.365,0,0,0,.992,5.4,7.2,7.2,0,0,0,6.678,3.51,6.007,6.007,0,0,0,4.037-10.186C4372.671,1363.784,4374.957,1355.562,4374.116,1347.208Z" transform="translate(-216.102 -39.949)" fill="#fff"/>
    <path id="Path_133" data-name="Path 133" d="M4269.131,1354.887c1.588-3.2,2.387-6.98,1.227-10.443a9.732,9.732,0,0,0-6.166-6.293,23.436,23.436,0,0,0,.75-11.665c-.638-3.245-2.893-6.6-6.346-6.587a9.75,9.75,0,0,0-6.8-7.741,9.5,9.5,0,0,0-10.382,4.26c-2.781,4.432-.174,9.392-.586,14.158a15.131,15.131,0,0,1-2.176,6.521,14.438,14.438,0,0,1-2.031,2.6c-.829.839-1.794,1.549-2.078,2.762-.278,1.191.135,2.53.195,3.732a19.381,19.381,0,0,1-.234,4.21,20.078,20.078,0,0,1-3.077,7.741,1.029,1.029,0,0,0,0,1.047,20.261,20.261,0,0,1,1,19.385,1.023,1.023,0,0,0,.008.959,1.073,1.073,0,0,0,.048,1.753c4.792,3.091,11.854,2.406,15.635-2.016,2.32-2.714,2.045-5.951,1.407-9.245a41.389,41.389,0,0,0-2.838-8.928,9.067,9.067,0,0,0,2.016-1.023,9.327,9.327,0,0,0,2.946,6.042,9.587,9.587,0,0,0,7.42,2.381,7.624,7.624,0,0,0,2.36,5.791,7.5,7.5,0,0,0,7.809,1.38c5.474-2.186,6.3-9.794,4.555-14.7A11.764,11.764,0,0,0,4269.131,1354.887Zm-13.474-14.694a3.948,3.948,0,0,0-1.044,1.546,4.063,4.063,0,0,0,.918,3.742c.379.357.265.166-.093.568a4.478,4.478,0,0,0-.519.723,15.528,15.528,0,0,1-1.015,1.929c-1.761,2.19-5.036.957-5.93-1.347-1.125-2.888.875-5.634,3.421-6.85a.911.911,0,0,0,.475-.479,1.137,1.137,0,0,0,.321-.182,5.279,5.279,0,0,1,2.314-1.069c.445-.085,1.438-.187,1.788.255S4255.951,1339.892,4255.657,1340.192Z" transform="translate(-154.782 -34.43)" fill="#fff"/>
    <path id="Path_134" data-name="Path 134" d="M4153.612,1313.345a5.941,5.941,0,0,0-6.27.408,4.859,4.859,0,0,0-1.832,2.37,3.991,3.991,0,0,0-.2,1.43c.033.75.338.924.88,1.336,2.658,2.026-.147,6.236-.849,8.534a16.6,16.6,0,0,0-.323,8.315,10.7,10.7,0,0,0-9.132,1.446c.085-1.848.2-3.694.4-5.534a74.813,74.813,0,0,1,1.546-7.855c.454-2.091.533-4.4-.957-6.106a17.387,17.387,0,0,1-7.286-4.535c-2.751-.3-4.912,1.931-6.562,3.818a1.018,1.018,0,0,0-.211,1.02c-1.56,1.639-1.914,4.693-1.371,6.761.578,2.19,1.929,4.523,1.465,6.852a4.99,4.99,0,0,1-4.191,3.844,1.04,1.04,0,0,0-.458,1.73,4.664,4.664,0,0,1-3.645,8.209c-.941-.087-1.305,1.164-.733,1.768,1.91,2.012,2.438,4.8,2.587,7.482a66.355,66.355,0,0,1-.147,9.378c-.25,2.934-1.185,5.717-1.558,8.626-.315,2.447-.033,5.17,1.971,6.869a5.807,5.807,0,0,1,7.563,5.561,5.257,5.257,0,0,0,6.46.052,7.083,7.083,0,0,0,2.217-6.1c-.236-2.739-1.623-5.174-2.422-7.768a17.53,17.53,0,0,0,2.526-17.023,6.241,6.241,0,0,0,5.657-2.679,5.838,5.838,0,0,0,3.91,1.479,5.478,5.478,0,0,0,1.591,5.874c-1.188,3.568-.873,8.856,3.694,9.44a6.018,6.018,0,0,0,5.743-3.127c1.372-2.447,1-5.42.071-7.959a14.666,14.666,0,0,0,1.618-14.222c-.292-.676-.9-1.521-.715-2.279a5.9,5.9,0,0,1,1.073-1.718,20.193,20.193,0,0,0,1.925-3.576,22.529,22.529,0,0,0,1.734-8.157C4159.5,1322.543,4158.253,1315.815,4153.612,1313.345Z" transform="translate(-81.246 -34.933)" fill="#fff"/>
    <g id="Group_354" data-name="Group 354" transform="translate(3983.589 1285.155)">
      <path id="Path_135" data-name="Path 135" d="M4023.039,1446.92a1.41,1.41,0,0,0-.722-.162,1.9,1.9,0,0,0-1.326.549,1.95,1.95,0,0,0-.55,1.326v.643a1.935,1.935,0,0,0,.55,1.326,2.084,2.084,0,0,0,1.326.549,1.894,1.894,0,0,0,1.326-.549,1.948,1.948,0,0,0,.549-1.326v-.643a1.937,1.937,0,0,0-.549-1.326A1.405,1.405,0,0,0,4023.039,1446.92Z" transform="translate(-4006.617 -1403.897)" fill="#fff"/>
      <path id="Path_136" data-name="Path 136" d="M4032.35,1332.5c-2.1-.1-3.56,1.287-4.727,2.841a12.02,12.02,0,0,0-17.394,4.067,7.116,7.116,0,0,0-6.326-.062,11.936,11.936,0,0,0-3.489,2.559c-.57.578-1.1,1.2-1.612,1.825-.408.5-.845,1.305-1.519,1.392a13.882,13.882,0,0,1-2-.261,7.068,7.068,0,0,0-1.96.215,8.526,8.526,0,0,0-5.917,5.625,6.431,6.431,0,0,0-3.736,5.054,6.937,6.937,0,0,0,3.206,6.927,10.005,10.005,0,0,0,8.592.932,15.4,15.4,0,0,0,6.032-4.036,8.3,8.3,0,0,0,4.749,5.924,8.911,8.911,0,0,0,4.227,11.524c.99,5.045,5.193,9.921,10.8,8.381a6.159,6.159,0,0,0,4.6-5.156c.356-2.76-.976-5.414-2.646-7.542.829-2.758,1.349-5.831.292-8.589a7.7,7.7,0,0,0-4.142-4.473,7.525,7.525,0,0,0-.767-6.015,11.863,11.863,0,0,0,6.1-.793,6.775,6.775,0,0,0,4.042-5.288c3.56-2.43,6.775-6,7-10.5C4035.858,1334.875,4034.768,1332.617,4032.35,1332.5Z" transform="translate(-3983.589 -1332.496)" fill="#fff"/>
    </g>
    <g id="Group_356" data-name="Group 356" transform="translate(4161.727 1256.738)">
      <g id="Group_355" data-name="Group 355" transform="translate(0)">
        <path id="Path_137" data-name="Path 137" d="M4597.746,1260.676c-1.064-4.3-6.031-4.543-9.5-3.251a12.894,12.894,0,0,0-5.759,4.265,7.859,7.859,0,0,0-3.728-3.067,6.4,6.4,0,0,0-7.594,2.611c-1.728,2.837-.292,5.6,1.93,7.6,2.866,2.589,4.327,5.675,3.811,9.59-.259,1.966,2.242,2.295,3.306,1.029q6.212-4.711,12.421-9.422C4595.608,1267.766,4598.774,1264.827,4597.746,1260.676Zm-4.267,3.55c-1.669,2.381-4.747,4.094-7.028,5.823l-5.875,4.456a15.388,15.388,0,0,0-5.032-8.5c-.693-.643-1.689-1.452-1.342-2.506a2.675,2.675,0,0,1,2.15-1.545c2.389-.218,3.7,2.636,4.087,4.536.4,1.948,3.051,1.608,3.617,0a9.222,9.222,0,0,1,5.187-5.448c1.061-.431,2.882-1,3.994-.454C4594.7,1261.311,4594.239,1263.142,4593.479,1264.226Z" transform="translate(-4528.423 -1256.738)" fill="#fff"/>
        <path id="Path_138" data-name="Path 138" d="M4493.9,1311.4a6.718,6.718,0,0,0-4.051,3.539,6.392,6.392,0,0,0-6.908.464c-3.349,2.383-3.477,6.983-3.336,10.747-.868.261-1.923-1.2-2.208-1.807a11.52,11.52,0,0,1-.875-4.424c-.109-2.627.1-5.3-.748-7.832a7.987,7.987,0,0,0-4.181-5.089,5.76,5.76,0,0,0-5.968,1.144c-2.008,1.724-3.121,4.385-3.892,6.852a1.062,1.062,0,0,0-.035.147,8.254,8.254,0,0,0-1.323,3.846c-.131,1.628.507,3.1.752,4.677a10.451,10.451,0,0,1-.89,4.85,11.424,11.424,0,0,0-.833,4.424c.124,1.583.975,2.723,1.565,4.14.691,1.656-.217,3.464-.668,5.076a32.888,32.888,0,0,0-.959,4.442c-.4,2.994-.121,6.054,1.751,8.452-1.376,2.343-2.735,4.927-2.593,7.7a6.745,6.745,0,0,0,3.444,5.841c2.479,1.191,5.169.147,7.063-1.62a14.762,14.762,0,0,0,3.968-7.523,19.972,19.972,0,0,0-.226-9.854,3.7,3.7,0,0,1,4.646-.4,3.893,3.893,0,0,1,1.454,2.24c.263,1.152-.213,2.149-.436,3.261a4.733,4.733,0,0,0,.255,2.806c.421,1.032,1.16,1.958,1.2,3.11.087,2.306-1.591,4.3-1.993,6.519a5.63,5.63,0,0,0,.909,4.732c1.32,1.515,3.439,1.508,5.246,1.058a11.8,11.8,0,0,0,7.376-6.1,12,12,0,0,0,.579-10.252,12.228,12.228,0,0,0-12.219-18.851,5.575,5.575,0,0,1,3.381-3.2c2.512-.91,5.28-.334,7.776.327a1.062,1.062,0,0,0,1.274-.723,13.148,13.148,0,0,0,.792-5.889c4.877-.464,9.635-3.763,9.921-9C4503.185,1314.31,4498.981,1309.675,4493.9,1311.4Z" transform="translate(-4458.492 -1287.895)" fill="#fff"/>
      </g>
      <path id="Path_139" data-name="Path 139" d="M4544.8,1338.195a7.305,7.305,0,0,0-3.893-4.616,8.348,8.348,0,0,0-13.253-10.055c-6.371-1.214-13.089,4.26-13.122,10.748a10.981,10.981,0,0,0-6.5,2.124,12.266,12.266,0,0,0-4.361,6.726,16.04,16.04,0,0,1-1.513,3.894c-.707,1.131-1.844,1.9-2.571,3.017-1.776,2.735.563,4.917,2,7.078a7.4,7.4,0,0,1-.452,8.655,1.061,1.061,0,0,0,0,1.465c4.052,4.158,1.965,10.809.094,15.5-2.124,5.323-4.693,10.955-10.664,12.615a13.27,13.27,0,0,1-13.611-3.933,7.016,7.016,0,0,0-3.425-2.553,6.778,6.778,0,0,0-4.314.408,8.852,8.852,0,0,0-4.68,4.74c-1.824,4.25-.8,9.683,2.854,12.573a6.425,6.425,0,0,0,.064,6.23c1.328,2.484,4.108,3.79,6.788,4.2,4.277.658,10.815-.459,12.075-5.33a6.247,6.247,0,0,0,2.494.516c4.913,2.157,10.753.42,15.016-2.864,2.653-2.044,5.108-4.575,5.749-7.982a15.123,15.123,0,0,0-.138-5.791,12.172,12.172,0,0,0,2.935-1.72,14.813,14.813,0,0,0,5.219-9.015,23.227,23.227,0,0,0-1.844-12.763,5.812,5.812,0,0,0,3.53-3.574c.914-2.47.017-5.213-1.347-7.331-1.313-2.039-3.885-3.951-4.129-6.506a2.124,2.124,0,0,1,1.079-2.016c.567-.369,1.368-.636,1.751.07a1.045,1.045,0,0,0,1.932-.522c.134-2.484.236-5.642,2.165-7.492,1.282-1.229,4-1.832,5.112-.083a1.121,1.121,0,0,0,.28.3,5.437,5.437,0,0,0,1.824,5.219,5.914,5.914,0,0,0,3.922,1.365,7.164,7.164,0,0,0,4.138-1.784,19.792,19.792,0,0,1,4.3-2.548,8.591,8.591,0,0,0,3.554-2.468A7.282,7.282,0,0,0,4544.8,1338.195Z" transform="translate(-4461.721 -1296.835)" fill="#fff"/>
    </g>
    <g id="Group_360" data-name="Group 360" transform="translate(3992.462 1339.099)">
      <g id="Group_358" data-name="Group 358" transform="translate(36.141 18.938)">
        <g id="Group_357" data-name="Group 357" transform="translate(57.244)">
          <path id="Path_140" data-name="Path 140" d="M4362.39,1569.431a27.9,27.9,0,0,1-9.771,4.939c-2.784.755-6.64,1.6-9.5.432a40.093,40.093,0,0,0,3.632-11.956,13.733,13.733,0,0,0,10.875-2.536c1.892-1.447.025-4.706-1.893-3.239a10.309,10.309,0,0,1-8.632,2.009,40.189,40.189,0,0,0-.417-7.76,19.885,19.885,0,0,0,17.52-7.932c1.449-1.933-1.807-3.8-3.239-1.893a15.92,15.92,0,0,1-15.558,5.873,1.759,1.759,0,0,0-1.054-.234,1.912,1.912,0,0,0-1.622,3.287,35.91,35.91,0,0,1-3.247,23.3,1.826,1.826,0,0,0-.117,1.486,1.906,1.906,0,0,0,.726,2.218c3.463,2.429,8.428,1.734,12.311.86a30.445,30.445,0,0,0,11.875-5.617C4366.167,1571.215,4364.3,1567.955,4362.39,1569.431Z" transform="translate(-4308.108 -1535.48)" fill="#fff"/>
          <path id="Path_141" data-name="Path 141" d="M4290.785,1527.3a15.882,15.882,0,0,1-9.6,4.145c-3.91.258-7.137-1.461-10.866-2.205-7.3-1.458-11.313,4.023-13.937,9.99-.962,2.189,2.269,4.1,3.239,1.893,1.159-2.638,2.472-5.752,4.939-7.436,3.226-2.2,7.034-.083,10.334.83-1.483,4.321-.791,8.928-.378,13.5.4,4.4.1,12.247-5.911,12.722-2.39.189-2.411,3.942,0,3.751,5.708-.451,9.1-5.547,9.7-10.873.678-6-2.119-12.721.333-18.454a19.932,19.932,0,0,0,14.8-5.207C4295.224,1528.323,4292.565,1525.676,4290.785,1527.3Z" transform="translate(-4256.203 -1526.793)" fill="#fff"/>
        </g>
        <path id="Path_142" data-name="Path 142" d="M4165.566,1556.752c-2.8,2.718-6.09,5.318-10.013,6.1-.3.061-.6.1-.9.129q.15-2.985.3-5.969c.244-4.861,1.608-11.412-2.079-15.356a6.6,6.6,0,0,0-5.589-2.174c-2.419.332-3.983,2.2-5.326,4.082a36.775,36.775,0,0,0-5.9,15.219,9.468,9.468,0,0,0-1.778.5,10.609,10.609,0,0,0-6.429,7.581c-.508,2.354,3.106,3.359,3.617,1a6.936,6.936,0,0,1,3.983-4.969c-.355,2.94-.566,5.9-.761,8.787a116.226,116.226,0,0,1-1.514,14.864c-.848,4.258-2.46,9.058-6.408,11.4-4.528,2.69-10.557.924-14.077-2.633-4.05-4.093-5.336-10.079-5.34-15.653a1.877,1.877,0,0,0-3.751,0c.008,9.926,4.6,21.176,15.485,23.065a13.655,13.655,0,0,0,12.927-4.367c3.172-3.71,4.506-8.549,5.2-13.287,1.088-7.449.986-15.156,2.025-22.644,3.417.475,6.476,2.548,9.724,3.592a14.822,14.822,0,0,0,1.733.441c-.391,5.253-.922,11.365,2.538,15.49,3.121,3.722,9.139,4.415,12.236.4,1.473-1.911-1.784-3.781-3.238-1.893-1.12,1.452-3.455.959-4.805.177-2.069-1.2-2.827-3.66-3.072-5.913a51.05,51.05,0,0,1,.118-8.035c5.2-.39,9.9-3.544,13.755-7.282C4169.955,1557.721,4167.3,1555.07,4165.566,1556.752Zm-14.2-3.089-.453,8.992a47.109,47.109,0,0,1-6.426-2.493,20.516,20.516,0,0,0-4.648-1.389,46.457,46.457,0,0,1,1.447-5.553c.932-2.808,5.458-13.95,9.26-8.5C4152.235,1547.141,4151.506,1550.911,4151.368,1553.663Z" transform="translate(-4103.594 -1534.69)" fill="#fff"/>
      </g>
      <g id="Group_359" data-name="Group 359" transform="translate(0 0)">
        <path id="Path_143" data-name="Path 143" d="M4036.47,1493.72c-.708,2.313,2.912,3.3,3.618,1a17.606,17.606,0,0,0-4.79-17.893c-1.765-1.644-4.423,1-2.652,2.653A13.844,13.844,0,0,1,4036.47,1493.72Z" transform="translate(-4022.753 -1476.306)" fill="#fff"/>
        <path id="Path_144" data-name="Path 144" d="M4070.917,1515.865c-4.366,4.891-10.5,9.4-17.342,9.354a13.1,13.1,0,0,1-12.778-11.462c-.216-1.919-3.231-2.756-3.684-.5-1.687,8.407-3.616,17.1-8.559,24.271-4.379,6.357-11.579,11.165-19.5,10.722-2.412-.134-2.4,3.617,0,3.751,8.672.484,16.584-4.481,21.721-11.183,4.51-5.884,6.877-12.974,8.576-20.149a16.654,16.654,0,0,0,12.56,8.2c5.34.587,10.5-1.35,14.924-4.378-5.846,13.143-10.7,27.083-8.762,41.582.315,2.357,4.07,2.389,3.751,0-2.263-16.935,5.025-32.984,12.044-47.935C4074.707,1516.34,4072.437,1514.163,4070.917,1515.865Z" transform="translate(-4007.244 -1498.55)" fill="#fff"/>
      </g>
    </g>
    <path id="Path_145" data-name="Path 145" d="M4473.984,1595.734a21.7,21.7,0,0,1-12.746,5.283c-4.206.27-9.383-.529-12.011-4.206-1.392-1.948-4.646-.076-3.239,1.893,7.07,9.894,22.752,6.549,30.648-.317C4478.462,1596.8,4475.8,1594.156,4473.984,1595.734Z" transform="translate(-288.735 -211.534)" fill="#fff"/>
    <path id="Path_146" data-name="Path 146" d="M4430.912,1575.188v.362a1.877,1.877,0,0,0,3.751,0v-.362A1.877,1.877,0,0,0,4430.912,1575.188Z" transform="translate(-279.53 -197.865)" fill="#fff"/>
    <path id="Path_147" data-name="Path 147" d="M4342.736,1291.491c-5.585-5.164-15.14-4.767-20.032,1.2-1.52,1.852,1.12,4.521,2.652,2.653,3.561-4.339,10.528-5.079,14.728-1.2C4341.854,1295.781,4344.513,1293.134,4342.736,1291.491Z" transform="translate(-211.626 -19.47)" fill="#fff"/>
    <path id="Path_148" data-name="Path 148" d="M4211.821,1275.156a11.315,11.315,0,0,0-13.76,2.143c-5.844-3.165-13.8-.045-16.178,6.17-.864,2.256,2.761,3.233,3.617,1,1.793-4.685,8.234-5.963,12.023-3.056a1.9,1.9,0,0,0,2.566-.672,7.484,7.484,0,0,1,9.839-2.344C4212.027,1279.6,4213.918,1276.356,4211.821,1275.156Z" transform="translate(-123.83 -10.609)" fill="#fff"/>
  </g>
</svg>
