<svg xmlns="http://www.w3.org/2000/svg" width="205.796" height="116.594" viewBox="0 0 205.796 116.594">
  <g id="Group_335" data-name="Group 335" transform="translate(-5574.086 -524.263)">
    <g id="Group_331" data-name="Group 331" transform="translate(5698.708 561.391)">
      <path id="Path_108" data-name="Path 108" d="M5919.737,689.393a5.992,5.992,0,0,1,4.3-4.391c2.41-.631,4.6.739,6.686,1.759a23.555,23.555,0,0,0,14.647,2.081c2.6-.448,1.5-4.414-1.094-3.968A18.751,18.751,0,0,1,5934.6,684c-2.712-1-5.08-2.774-8-3.181a10.03,10.03,0,0,0-10.829,7.482C5915.117,690.867,5919.084,691.962,5919.737,689.393Z" transform="translate(-5899.76 -653.479)" fill="#fff"/>
      <g id="Group_330" data-name="Group 330" transform="translate(0)">
        <path id="Path_109" data-name="Path 109" d="M6005.475,680.909a1.549,1.549,0,0,0,.792.177l.547-.073a2.062,2.062,0,0,0,.908-.529l.322-.416a2.062,2.062,0,0,0,.281-1.039v-.407a2.116,2.116,0,0,0-2.058-2.057l-.546.074a2.051,2.051,0,0,0-.908.529l-.322.416a2.056,2.056,0,0,0-.281,1.038v.407a1.987,1.987,0,0,0,1.265,1.88Z" transform="translate(-5951.852 -651.026)" fill="#fff"/>
        <path id="Path_110" data-name="Path 110" d="M5946.747,649.525a47.458,47.458,0,0,1-5.924-.068,38.97,38.97,0,0,0,17.3-32.891c-.046-1.892-2.934-2.993-3.834-1.039-4.288,9.3-14.284,14.029-24.165,14.49-5.839.273-11.145-1.324-16.757-2.681-6.149-1.487-12.111-1.619-18.017.865-6.215,2.614-11.384,7.146-16.152,11.809-1.9,1.854,1.015,4.763,2.909,2.909,4.379-4.282,9.111-8.555,14.83-10.951,6.4-2.681,12.517-1.428,18.982.278,10.317,2.72,21.136,2.711,30.656-2.678a28.394,28.394,0,0,0,6.7-5.235,34.935,34.935,0,0,1-19.889,24.5c-1.615.709-1.152,3.415.491,3.76a50.91,50.91,0,0,0,9.611,1.1c-5.581,9.739-18.653,12.551-28.07,5.946-1.9-1.33-4.279,1.722-2.493,3.231l10.418,8.8a31.858,31.858,0,0,1-27-1.979,32.19,32.19,0,0,1-15.383-22.234c-.462-2.6-4.428-1.5-3.968,1.094a35.455,35.455,0,0,0,51.216,25.447,2.068,2.068,0,0,0,.418-3.231l-4.032-3.4a22.519,22.519,0,0,0,9.826-1.119,23.971,23.971,0,0,0,14.3-14.111A2.069,2.069,0,0,0,5946.747,649.525Z" transform="translate(-5876.962 -614.499)" fill="#fff"/>
      </g>
    </g>
    <g id="Group_334" data-name="Group 334" transform="translate(5574.086 524.263)">
      <g id="Group_332" data-name="Group 332">
        <path id="Path_111" data-name="Path 111" d="M5628.394,590.863a2.054,2.054,0,0,0-1.039-.281h-.407a1.984,1.984,0,0,0-1.88,1.265,1.538,1.538,0,0,0-.177.792c.024.183.048.365.073.547a2.054,2.054,0,0,0,.528.908l.417.322a2.043,2.043,0,0,0,1.038.281h.407a1.987,1.987,0,0,0,1.881-1.264,1.568,1.568,0,0,0,.177-.793l-.073-.547a2.065,2.065,0,0,0-.529-.908Z" transform="translate(-5603.986 -563.294)" fill="#fff"/>
        <path id="Path_112" data-name="Path 112" d="M5640.78,557.87c-4.019-5.7-10.934-8.237-17.49-9.657-7.352-1.592-15.287-2.026-21.709-6.345-5.833-3.923-9.519-10.3-12.28-16.6a2.071,2.071,0,0,0-3.231-.416,25.31,25.31,0,0,0,6.317,40.5,17.669,17.669,0,0,1-15.184-2.521,2.076,2.076,0,0,0-3.022,2.323c3.741,10.833,15.9,16.907,26.722,14.225a11,11,0,0,1-9.828,7.65c-2.453.095-2.622,3.184-.548,4.041,14.838,6.129,29.757-2.84,40.381-12.753,1.94-1.81-.974-4.715-2.91-2.909-8,7.463-18.48,14.422-29.526,13.393a15.086,15.086,0,0,0,7.036-12.435,2.083,2.083,0,0,0-3.095-1.777c-7.2,3.252-16.2.61-21.236-5.293a21.75,21.75,0,0,0,17.431-2.241,2.083,2.083,0,0,0-.492-3.76,21.234,21.234,0,0,1-11.1-33.206,40.655,40.655,0,0,0,9.533,13.073c5.349,4.632,11.914,6.486,18.743,7.735,6.61,1.209,13.964,2.085,19.387,6.439,4.431,3.559,6.924,10.267,3.285,15.225-1.568,2.137,2,4.192,3.553,2.077C5645.167,569.66,5644.189,562.7,5640.78,557.87Z" transform="translate(-5574.086 -524.263)" fill="#fff"/>
      </g>
      <g id="Group_333" data-name="Group 333" transform="translate(28.283 12.45)">
        <path id="Path_113" data-name="Path 113" d="M5666.037,616.318c.151-4.394-4.088-6.42-7.915-6.447-2.308-.016-4.616.272-6.921.353-1.8.063-3.721.115-4.961-1.377-1.695-2.039-4.591.886-2.91,2.909,2,2.4,5.215,2.7,8.143,2.569,2.2-.1,10.58-1.779,10.449,1.993C5661.831,618.966,5665.945,618.963,5666.037,616.318Z" transform="translate(-5642.823 -586.087)" fill="#fff"/>
        <path id="Path_114" data-name="Path 114" d="M5771.247,565.879a1.756,1.756,0,0,0-1.807-1.058c-2.323-1.229-5.369-.82-7.928-1.254a56.719,56.719,0,0,1-9.75-2.751c-6.417-2.321-12.676-5.151-19.455-6.263-2.374-.389-3.5,2.918-1.649,3.8a2.1,2.1,0,0,0,.129.553c2.387,6.314,3.869,12.334.78,18.705-3.142,6.482-7.989,12.172-12.766,17.5-4.906,5.468-10.1,10.674-14.851,16.285-4.227,5-8,10.411-9.6,16.846a32.552,32.552,0,0,0,1.079,19.17,2.1,2.1,0,0,0,1.393,1.319,1.627,1.627,0,0,0,1.495,1.675,373.051,373.051,0,0,1,38.987,8.188,2.086,2.086,0,0,0,2.34-2.985,21.1,21.1,0,0,1,.81-17.682c3.049-5.987,7.865-10.935,11.891-16.257a181.347,181.347,0,0,0,12.05-18.077c3.4-5.827,6.75-11.907,8.4-18.5C5774.395,578.674,5774.2,571.874,5771.247,565.879Zm-8.422,2c1.4.161,4-.242,5.035.831a2.279,2.279,0,0,0,.281.244,20.225,20.225,0,0,1,1.221,4.02,2.331,2.331,0,0,0-.49.026c-2.288.367-3.707.008-5.032-2.027a6.717,6.717,0,0,1-1.175-3.114Zm-21.952-6.755a11.633,11.633,0,0,1-3.978,3.85,41.852,41.852,0,0,0-1.569-5.572C5737.2,559.894,5739.044,560.485,5740.873,561.127Zm-41.445,85.306c0-.012-.006-.023-.011-.035a30.469,30.469,0,0,1-1.427-5.149,6.925,6.925,0,0,1,4.377,1.995,8.062,8.062,0,0,1,1.984,3.99Q5701.892,646.818,5699.428,646.432Zm29.943,5.912c-.475-1.981-.973-4.088.276-5.9a4.486,4.486,0,0,1,4.518-1.856,25.334,25.334,0,0,0,.588,9.086Q5732.066,652.987,5729.371,652.345Zm29.639-47.77a177.307,177.307,0,0,1-12.552,18.023c-3.942,4.96-8.258,9.762-10.676,15.7-.3.745-.562,1.5-.788,2.259a8.651,8.651,0,0,0-8.229,2.9c-1.964,2.362-2.2,5.072-1.783,7.861q-8.115-1.845-16.305-3.33c-.53-3.014-1.446-5.917-3.8-8.032a11.2,11.2,0,0,0-7.341-2.864,27.933,27.933,0,0,1,.787-7.778c1.673-6.766,6.036-12.226,10.558-17.353,4.865-5.516,10.07-10.722,14.889-16.281,4.53-5.226,9.165-10.9,11.948-17.285a20.53,20.53,0,0,0,1.707-9.074,15.439,15.439,0,0,0,7.381-6.751c1.559.592,3.116,1.193,4.678,1.774a68.989,68.989,0,0,0,9.065,2.819,10.732,10.732,0,0,0,2.343,6.734c2.341,3.135,5.212,3.679,8.879,3.11C5769.838,586.74,5763.845,596.646,5759.009,604.574Z" transform="translate(-5672.584 -554.521)" fill="#fff"/>
      </g>
    </g>
    <path id="Path_115" data-name="Path 115" d="M5790.775,653.1c-3.094.2-4.894,2.133-6.436,4.38-1.427-.688-2.853-1.377-4.286-2.05a7.946,7.946,0,0,1,2.045-3.72c1.917-1.829-.965-4.766-2.881-2.936a12.136,12.136,0,0,0-2.963,4.9c-.653-.3-1.3-.608-1.957-.905-2.386-1.082-4.482,2.463-2.066,3.56,1.059.48,2.109.975,3.165,1.463a17.5,17.5,0,0,0-.037,2.735c.235,3.392,2.834,8.111,6.87,5.979a10.1,10.1,0,0,0,3.532-3.767q2.635,1.3,5.259,2.628a17.086,17.086,0,0,1-3.7,2.746c-2.313,1.293-.313,4.89,2,3.6a22.654,22.654,0,0,0,5.577-4.346c.5.26,1,.513,1.5.774,2.335,1.226,4.419-2.324,2.065-3.56-.436-.23-.878-.451-1.316-.679a7.069,7.069,0,0,0,.529-2.568C5797.694,657.265,5795.336,652.805,5790.775,653.1Zm-9.258,8.586c-.852,1.1-1.271,1.5-1.791.073a5.827,5.827,0,0,1-.289-2.08c.878.416,1.752.839,2.627,1.261C5781.887,661.193,5781.7,661.444,5781.518,661.685Zm11.817.249q-2.685-1.368-5.392-2.7c.873-1.174,1.958-2.141,3.359-2.047C5793.278,657.32,5793.756,660.134,5793.334,661.934Z" transform="translate(-115.985 -72.939)" fill="#fff"/>
  </g>
</svg>
