<svg xmlns="http://www.w3.org/2000/svg" width="39.941" height="41.399" viewBox="0 0 39.941 41.399">
  <path id="Path_92" data-name="Path 92" d="M927.382-114.657c-5.1-4.869-10.232-9.779-15.07-14.94q8.5-7.945,16.765-16.141c1.43-1.42-.8-3.613-2.224-2.2q-8.207,8.147-16.657,16.04a111.725,111.725,0,0,1-14.726-19.895c-.991-1.754-3.677-.157-2.687,1.594a114.568,114.568,0,0,0,15.132,20.428q-8.781,8.143-17.809,16.015c-1.52,1.324.716,3.51,2.224,2.2q8.974-7.819,17.7-15.915c4.868,5.195,10.026,10.14,15.157,15.038C926.643-111.043,928.838-113.267,927.382-114.657Z" transform="translate(-889.597 152.549)" fill="#ffd750"/>
</svg>
