<svg xmlns="http://www.w3.org/2000/svg" width="86" height="66" viewBox="0 0 86 66">
  <g id="Group_351" data-name="Group 351" transform="translate(-418.359 -1414.395)">
    <path id="Path_128" data-name="Path 128" d="M549.574,1440.524c0-1.661.088-3.351-.018-5.01a4.5,4.5,0,0,0-1.189-3.127c-1.74-1.6-3.858-.357-5.234,1.236q-.461-2.382-1.091-4.734a4.641,4.641,0,0,0,.6-.1,3.678,3.678,0,0,0,2.72-4.189,5.413,5.413,0,0,0-3.317-4.353,3.768,3.768,0,0,0-3.005.083,7.433,7.433,0,0,0-4.8-2.287,8.431,8.431,0,0,0-5.29,1.448,5.249,5.249,0,0,0-3.757-3.7c-2.76-.666-5.162.529-7.086,2.32a5.842,5.842,0,0,0-5.746-3.71c-3.428.209-5.786,2.6-7.179,5.486a5.247,5.247,0,0,0-3.2-1.343,7.886,7.886,0,0,0-6.335,3.06c-1.287,1.613-1.937,3.924-.711,5.759a4.162,4.162,0,0,0,2.107,1.621,1.179,1.179,0,0,0,0,.52l3.052,14.07,1.526,7.035.668,3.078a11.466,11.466,0,0,0,.81,3.037c.928,1.715,3.19,1.783,4.9,2.007,2.227.292,4.47.459,6.707.646a128.806,128.806,0,0,0,13.443.583,52.412,52.412,0,0,0,14.66-2.218,1.122,1.122,0,0,0,.793-.793,69.185,69.185,0,0,0,.769-8.948,3.05,3.05,0,0,0,3.454.384,3.453,3.453,0,0,0,1.727-2.948C549.7,1443.823,549.575,1442.148,549.574,1440.524Zm-6.617-15.012a2.343,2.343,0,0,0,.091-.259,2.236,2.236,0,0,0,.069-.38,2.552,2.552,0,0,1,.016.31,1.523,1.523,0,0,1-.3.932A2.106,2.106,0,0,0,542.957,1425.512Zm-39.7-4.334c-.2-.065-.408-.122-.618-.171-.008-.028-.015-.056-.025-.083A2.507,2.507,0,0,1,503.256,1421.178Zm38.225,34.6c-7.738,2.28-15.867,2.15-23.848,1.568-2.038-.149-4.074-.324-6.109-.5-1.033-.091-2.066-.186-3.095-.316a8.334,8.334,0,0,1-3.056-.589c-.641-.422-.658-1.717-.808-2.405l-.763-3.518-1.383-6.376-2.918-13.451,11.214-.97c1.862-.161,3.726-.363,5.591-.477,1.9-.117,3.223.116,4.471,1.642a7.5,7.5,0,0,0,6.472,3.071,7.645,7.645,0,0,0,5.4-2.617,6.223,6.223,0,0,0,6.211-1.019,5.875,5.875,0,0,0,.845-.833,66.124,66.124,0,0,1,2.373,15.373.957.957,0,0,0,.007.248A64.763,64.763,0,0,1,541.482,1455.774Zm5.789-10.333c-.126.849-.7,1.254-1.521.819a3.665,3.665,0,0,1-1.4-2.008c0-.013-.011-.024-.017-.037a68.1,68.1,0,0,0-.662-7.4,1.076,1.076,0,0,0,.325-.406c.473-.981,2.728-3.89,3.219-1.477a26.743,26.743,0,0,1,.09,5.15A37.5,37.5,0,0,1,547.271,1445.441Z" transform="translate(-58.681 0)" fill="#fff"/>
    <path id="Path_129" data-name="Path 129" d="M486.978,1518.519c-12.131,3.7-25,3.3-37.443,1.635-2.734-.365-5.932-.538-8.273-2.152-2.261-1.56-3.05-4.434-3.669-6.958-.776-3.168-1.417-6.371-1.939-9.591-.459-2.833-.534-5.862-1.368-8.618a7.791,7.791,0,0,0-5.762-5.543c-3.185-.759-6.364.2-9.381,1.188-1.382.454-.79,2.647.6,2.189,2.8-.922,5.905-1.99,8.84-1,2.806.946,3.632,3.537,4.016,6.216.859,6,1.546,12.173,3.409,17.974a11.18,11.18,0,0,0,4.1,6.1c2.348,1.6,5.33,1.9,8.066,2.279a130.2,130.2,0,0,0,18.715,1.406,72.547,72.547,0,0,0,20.683-2.939C488.975,1520.283,488.38,1518.091,486.978,1518.519Z" transform="translate(0 -56.135)" fill="#fff"/>
    <path id="Path_130" data-name="Path 130" d="M526.4,1659.233c-1.134-1.56-2.964-3.006-5-2.793a4.788,4.788,0,0,0-3.7,3.354c-1.248,3.307.541,7.594,4.5,7.4a4.73,4.73,0,0,0,4.021-2.581c.093-.078.183-.16.268-.248C527.921,1662.89,527.512,1660.764,526.4,1659.233Z" transform="translate(-76.479 -187.076)" fill="#fff"/>
    <path id="Path_131" data-name="Path 131" d="M685.529,1663.144a5.044,5.044,0,0,0-7.318-2.091c-2.559,1.6-3.317,5.081-.822,7.111a4.994,4.994,0,0,0,3.672,1.078,3.782,3.782,0,0,0,.826.047A4.409,4.409,0,0,0,685.529,1663.144Z" transform="translate(-199.039 -190.041)" fill="#fff"/>
    <rect id="Rectangle_506" data-name="Rectangle 506" width="3" height="66" transform="translate(501.358 1414.395)" fill="none"/>
  </g>
</svg>
