<svg xmlns="http://www.w3.org/2000/svg" width="112.625" height="62.655" viewBox="0 0 112.625 62.655">
  <path id="Path_170" data-name="Path 170" d="M106.348,172.152a324.659,324.659,0,0,1-91.206,1.165,97.1,97.1,0,0,1,25.1-17.455c5.79-2.806.725-11.432-5.047-8.635A104.22,104.22,0,0,0,1.433,173.266c-1.7,1.992-2.1,5.12,0,7.071A161.422,161.422,0,0,1,24.68,207.1c3.628,5.264,12.3.269,8.634-5.047a176.715,176.715,0,0,0-14.488-18.324,341.008,341.008,0,0,0,90.181-1.929c6.339-.984,3.647-10.621-2.659-9.643" transform="translate(0 -146.676)" fill="#fff"/>
</svg>
