<svg xmlns="http://www.w3.org/2000/svg" width="44" height="44" viewBox="0 0 44 44">
  <g id="Group_456" data-name="Group 456" transform="translate(9411.885 -19018.115)">
    <circle id="Ellipse_136" data-name="Ellipse 136" cx="22" cy="22" r="22" transform="translate(-9411.885 19018.115)" fill="#fd4b4b"/>
    <path id="Path_224" data-name="Path 224" d="M913.755-128.323c-3.262-3.113-6.542-6.252-9.635-9.552q5.435-5.08,10.719-10.32c.915-.908-.51-2.31-1.422-1.4q-5.247,5.209-10.65,10.255a71.425,71.425,0,0,1-9.415-12.72c-.634-1.122-2.351-.1-1.718,1.019a73.245,73.245,0,0,0,9.674,13.061q-5.614,5.206-11.386,10.239c-.972.847.458,2.244,1.422,1.4q5.738-5,11.317-10.175c3.112,3.321,6.41,6.483,9.691,9.614C913.282-126.012,914.686-127.434,913.755-128.323Z" transform="translate(-10292.007 19179.5)" fill="#fff"/>
  </g>
</svg>
